{"title":"Raman Raghav 2.0 (2016) Tiny 720p Blu-ray x264 AAC 5.1 ESub -DDR","uid":15759485,"size":1586394121,"categoryP":"video","categoryS":"hd___movies","magnet":"?xt=urn:btih:428aba805f0bf98878f3b649c7073b88a6f4d2f7&amp;dn=Raman+Raghav+2.0+%282016%29+Tiny+720p+Blu-ray+x264+AAC+5.1+ESub+-DDR&amp;tr=udp%3A%2F%2Ftracker.leechers-paradise.org%3A6969&amp;tr=udp%3A%2F%2Fzer0day.ch%3A1337&amp;tr=udp%3A%2F%2Fopen.demonii.com%3A1337&amp;tr=udp%3A%2F%2Ftracker.coppersurfer.tk%3A6969&amp;tr=udp%3A%2F%2Fexodus.desync.com%3A6969","seeders":26,"leechers":13,"uploader":"SaM","files":3,"time":1473094638,"description":"** Raman Raghav - 2.0 **\r\n\r\n** 2016**\r\n\r\n** Tiny 720p / Blu-ray / x264\r\n\r\nHindi AAC 5.1 **\r\n\r\n** English Subtitle(s) **\r\n\r\n\r\n\r\n[ SCREENS ]\r\n \nhttp://extraimago.com/image/wQKK \nhttp://extraimago.com/image/wQKJ \nhttp://extraimago.com/image/wQK0 \nhttp://extraimago.com/image/wQKz \nhttp://extraimago.com/image/wQKU \nhttp://extraimago.com/image/wQKM \nhttp://extraimago.com/image/wQK9 \nhttp://extraimago.com/image/wQK3 \nhttp://extraimago.com/image/wQKb \nhttp://extraimago.com/image/wQKh \nhttp://extraimago.com/image/wQKd \nhttp://extraimago.com/image/wQKI\r\n\r\n[ Info ]\r\n\r\nSource : BD50 @ DDR\r\nGeneral\r\nFormat : Matroska\r\nFile size : 1.46 GiB\r\nDuration : 2 h 13 min\r\nOverall bit rate : 1 571 kb/s\r\n\r\nVideo\r\nID : 1\r\nFormat : AVC\r\nFormat/Info : Advanced Video Codec\r\nFormat profile :   \r\nFormat settings, CABAC : Yes\r\nFormat settings, ReFrames : 12 frames\r\nCodec ID : V_MPEG4/ISO/AVC\r\nDuration : 2 h 13 min\r\nBit rate : 1 408 kb/s\r\nWidth : 1 280 pixels\r\nHeight : 534 pixels\r\nDisplay aspect ratio : 2.40:1\r\nFrame rate mode : Constant\r\nFrame rate : 24.000 FPS\r\ncolor space : YUV\r\nChroma subsampling : 4:2:0\r\nBit depth : 8 bits\r\nScan type : Progressive\r\nBits/(Pixel*Frame) : 0.086\r\nStream size : 1.31 GiB (90%)\r\nDefault : Yes\r\nForced : No\r\ncolor range : Limited\r\ncolor primaries : BT.709\r\nTransfer characteristics : BT.709\r\nMatrix coefficients : BT.709\r\n\r\nAudio\r\nFormat : AAC\r\nFormat/Info : Advanced Audio Codec\r\nFormat profile : LC\r\nCodec ID : A_AAC\r\nDuration : 2 h 13 min\r\nBit rate : 160 kb/s\r\nChannel(s) : 6 channels\r\nChannel positions : Front: L C R, Side: L R, LFE\r\nSampling rate : 48.0 kHz\r\nFrame rate : 46.875 FPS (1024 spf)\r\nCompression mode : Lossy\r\nDelay relative to video : 9 ms\r\nStream size : 152 MiB (10%)\r\nDefault : Yes\r\nForced : No","torrent":{"xt":"urn:btih:428aba805f0bf98878f3b649c7073b88a6f4d2f7","amp;dn":"Raman+Raghav+2.0+%282016%29+Tiny+720p+Blu-ray+x264+AAC+5.1+ESub+-DDR","amp;tr":["udp%3A%2F%2Ftracker.leechers-paradise.org%3A6969","udp%3A%2F%2Fzer0day.ch%3A1337","udp%3A%2F%2Fopen.demonii.com%3A1337","udp%3A%2F%2Ftracker.coppersurfer.tk%3A6969","udp%3A%2F%2Fexodus.desync.com%3A6969"],"infoHash":"428aba805f0bf98878f3b649c7073b88a6f4d2f7","infoHashBuffer":{"type":"Buffer","data":[66,138,186,128,95,11,249,136,120,243,182,73,199,7,59,136,166,244,210,247]},"announce":[],"urlList":[]}}